<svg xmlns="http://www.w3.org/2000/svg" width="131.159" height="146.543"><g fill="none" stroke="#000" stroke-linecap="round" stroke-linejoin="round" stroke-width="4"><path d="M129.159 33.67c0 17.5-17.11 31.68-38.22 31.68a45.225 45.225 0 0 1-13.59-2.06c-2.55-.81-19 13.05-19 13.05s7.5-18.7 5.61-20.27c-6.96-5.73-11.24-13.65-11.24-22.4C52.719 16.18 69.829 2 90.939 2s38.22 14.18 38.22 31.67zM25.839 63.8l32.41 57.06c.66 1.15 7.11-1.29 8.26-1.94L78.6 140.21c-12.9 7.33-34.3 5.64-41.6-7.21L4.559 75.9c-7.34-12.9 2.17-32.15 15.08-39.48l12.09 21.28c-1.15.66-6.54 4.95-5.89 6.1z"/><path d="M19.114 20.661h0a7.33 7.33 0 0 1 9.994 2.753L42.9 47.69a7.33 7.33 0 0 1-2.753 9.994h0a7.33 7.33 0 0 1-9.994-2.753L16.361 30.655a7.331 7.331 0 0 1 2.753-9.994zM67.9 106.544h0a7.33 7.33 0 0 1 9.99 2.756l13.791 24.276a7.33 7.33 0 0 1-2.753 9.994h0a7.33 7.33 0 0 1-9.994-2.753l-13.791-24.279a7.33 7.33 0 0 1 2.757-9.994z"/></g></svg>