<svg xmlns="http://www.w3.org/2000/svg" width="128" height="128" xml:space="preserve"><path fill="#282D33" d="M111.087 9.119h-3.985V3.985H96.687v5.134h-3.984v-5.83c0-1.814 1.606-3.289 3.58-3.289h11.234c1.969 0 3.57 1.475 3.57 3.289v5.83zM101.904 118.889 92.6 101.706v-3.075h3.985v2.065l5.319 9.823 5.317-9.823v-2.065h3.984v3.075z"/><path fill="#282D33" d="M109.031 27.36v69.046H95.263V27.365l6.547.196.115.004.116-.004 6.99-.201m3.933-4.05-11.035.319-10.601-.319v77.033h21.636V23.31z"/><path fill="#282D33" d="M112.991 25.959h-3.984V16.46h-13.72v9.499h-3.984V12.476h21.688z"/><g><path fill="#282D33" d="M19.276 128v-27.633H1.241V23.979h125.518v76.388H49.184L19.276 128zM5.226 96.383h18.035v22.51l24.363-22.51h75.15V27.964H5.226v68.419z"/><path fill="#282D33" d="M19.484 44.219h62.318v3.984H19.484zM19.484 60.485h62.318v3.984H19.484zM19.484 76.764h62.318v3.984H19.484z"/></g></svg>